<svg id="Layer_1" data-name="Layer 1" xmlns="http://www.w3.org/2000/svg" viewBox="0 0 139 139"><defs><style>.cls-1{fill:none;stroke:#000;stroke-miterlimit:10;}</style></defs><path d="M330.15,254.5l-12.06,11.16a30.12,30.12,0,0,1-.63-3.6c-.14-5.6-1.79-11.83.14-16.61,1.86-4.61,7.37-7.8,11.39-11.48q11.92-10.9,24-21.66a20.07,20.07,0,0,1,2.89-1.86l-1-1.47a27.85,27.85,0,0,0-3.82,1.69q-21.18,13.32-42.3,26.75a5.84,5.84,0,0,1-5.56.76c-5.4-1.81-10.92-3.28-16.31-5.13-1.44-.49-2.59-1.84-3.87-2.79,1.2-1.21,2.19-2.94,3.64-3.53,8.7-3.54,17.5-6.81,26.27-10.18,16.85-6.47,33.67-13,50.56-19.34,1.88-.71,4.61-1.15,6.15-.29,2.57,1.43,1.71,4.5,1.2,7q-5.05,24-10.22,48c-.95,4.44-1.89,8.88-2.86,13.32-1.22,5.64-4,6.69-8.77,3.22C342.77,263.88,336.59,259.27,330.15,254.5Z" transform="translate(-257.81 -163.56)"/><circle class="cls-1" cx="69.5" cy="69.5" r="69"/></svg>