<svg id="Layer_1" data-name="Layer 1" xmlns="http://www.w3.org/2000/svg" viewBox="0 0 147 147"><defs><style>.cls-1{fill:none;stroke:#faed24;stroke-miterlimit:10;}.cls-2{fill:#faed24;}</style></defs><path class="cls-1" d="M262.5,418.76a73,73,0,1,1-72.88-73.12A73.13,73.13,0,0,1,262.5,418.76Zm-73.32,26.31c6.44,4.78,12.62,9.38,18.84,13.94,4.74,3.47,7.55,2.42,8.77-3.23,1-4.43,1.91-8.87,2.86-13.31q5.13-24,10.22-48c.51-2.45,1.37-5.53-1.2-7-1.54-.85-4.27-.41-6.15.29-16.89,6.34-33.71,12.87-50.56,19.34-8.77,3.37-17.57,6.65-26.27,10.19-1.45.59-2.44,2.32-3.64,3.52,1.28,1,2.43,2.3,3.87,2.8,5.39,1.84,10.91,3.32,16.31,5.13a5.84,5.84,0,0,0,5.56-.77q21.09-13.47,42.3-26.74a29.17,29.17,0,0,1,3.82-1.7l1,1.47a21,21,0,0,0-2.89,1.87c-8,7.19-16.05,14.38-24,21.66-4,3.68-9.53,6.86-11.39,11.47-1.93,4.79-.28,11-.14,16.62a30.46,30.46,0,0,0,.63,3.6Z" transform="translate(-116 -345.14)"/><path class="cls-2" d="M189.18,445.07l-12.06,11.17a30.46,30.46,0,0,1-.63-3.6c-.14-5.6-1.79-11.83.14-16.62,1.86-4.61,7.37-7.79,11.39-11.47,7.95-7.28,16-14.47,24-21.66a21,21,0,0,1,2.89-1.87l-1-1.47a29.17,29.17,0,0,0-3.82,1.7q-21.18,13.31-42.3,26.74a5.84,5.84,0,0,1-5.56.77c-5.4-1.81-10.92-3.29-16.31-5.13-1.44-.5-2.59-1.84-3.87-2.8,1.2-1.2,2.19-2.93,3.64-3.52,8.7-3.54,17.5-6.82,26.27-10.19,16.85-6.47,33.67-13,50.56-19.34,1.88-.7,4.61-1.14,6.15-.29,2.57,1.43,1.71,4.51,1.2,7q-5.06,24-10.22,48c-1,4.44-1.89,8.88-2.86,13.31-1.22,5.65-4,6.7-8.77,3.23C201.8,454.45,195.62,449.85,189.18,445.07Z" transform="translate(-116 -345.14)"/></svg>