<svg id="Layer_1" data-name="Layer 1" xmlns="http://www.w3.org/2000/svg" viewBox="0 0 139 139"><defs><style>.cls-1{fill:none;stroke:#000;stroke-miterlimit:10;}</style></defs><circle class="cls-1" cx="69.5" cy="69.5" r="69"/><path d="M464.53,259.52a38.55,38.55,0,0,0,26-7.78c-8.3-.86-13.79-4.89-16.85-12.68h7.62c-8.6-3.07-13.36-8.84-14-18l7.57,2.11.26-.42a18.44,18.44,0,0,1-7.64-14.51,15.84,15.84,0,0,1,2.56-9.27c9.75,11.33,22,17.68,37.18,18.75-.11-.88-.21-1.6-.28-2.32a18.13,18.13,0,0,1,30.22-15.22,2.42,2.42,0,0,0,2.73.62c1.63-.56,3.3-1,4.91-1.6s3-1.38,4.53-2.08c-.12,2.3-1.7,4.49-6.73,9.75l9.26-2.51c-.58.81-1.08,1.57-1.65,2.28s-1.24,1.49-1.91,2.19a15.13,15.13,0,0,1-2.59,2.42c-2.11,1.31-2.59,3.06-2.62,5.49-.25,20.25-13.75,43.33-39,49.13A51.56,51.56,0,0,1,465.29,260,7.85,7.85,0,0,1,464.53,259.52Z" transform="translate(-433.31 -164.06)"/></svg>