<svg id="Layer_1" data-name="Layer 1" xmlns="http://www.w3.org/2000/svg" viewBox="0 0 1125 1791"><defs><style>.cls-1{fill:#fff;}.cls-2{fill:#ea637d;}.cls-3{fill:#fff100;}.cls-4{fill:#ffca2a;}.cls-5{fill:#ffdf81;}.cls-6{fill:#f3a820;}.cls-7{fill:#c0ca33;}.cls-8{fill:#2b2929;}.cls-9{fill:#231f20;}.cls-10{opacity:0.9;}.cls-11{font-size:12.7px;stroke:#fff;stroke-linecap:round;stroke-linejoin:round;stroke-width:0.5px;font-family:Stop;}.cls-12{font-size:48.8px;}.cls-12,.cls-16{font-family:MyriadPro-Bold, Myriad Pro;font-weight:700;}.cls-13{letter-spacing:0em;}.cls-14{letter-spacing:-0.03em;}.cls-15,.cls-16{fill:#ec637d;}.cls-16{font-size:64px;}.cls-17{letter-spacing:0em;}.cls-18{letter-spacing:-0.05em;}.cls-19{letter-spacing:-0.01em;}.cls-20{letter-spacing:0em;}.cls-21{letter-spacing:-0.04em;}.cls-22,.cls-25{fill:none;stroke:#ec637d;stroke-miterlimit:10;}.cls-23{letter-spacing:-0.02em;}.cls-24{letter-spacing:0em;}.cls-25{stroke-width:6px;}.cls-26{letter-spacing:-0.01em;}</style></defs><rect class="cls-1" width="1125" height="1791"/><circle class="cls-2" cx="395.71" cy="76.59" r="63.54"/><path class="cls-3" d="M395.71,141.88A65.29,65.29,0,0,1,349.54,30.42a65.29,65.29,0,0,1,92.34,92.34A64.89,64.89,0,0,1,395.71,141.88Zm0-127.08a61.79,61.79,0,1,0,61.78,61.79A61.86,61.86,0,0,0,395.71,14.8Z"/><path class="cls-4" d="M420.57,33.54a17.53,17.53,0,0,0,.28,4.09,6.77,6.77,0,0,0,1.07,2.43,28.63,28.63,0,0,1,4.57,10.58,35.8,35.8,0,0,1-.83,18,27.87,27.87,0,0,1-1,3.08,3.21,3.21,0,0,0-.91,1.19c-.6,1.16-1.06,2.39-1.72,3.53a41.27,41.27,0,0,1-6.39,8.08c-1.29,1.3-2.65,2.52-4,3.71a59.85,59.85,0,0,1-5.28,4.08,83.07,83.07,0,0,1-7.93,4.7,70.34,70.34,0,0,1-8.88,3.94,46.81,46.81,0,0,1-13.12,2.86,31.67,31.67,0,0,1-6.23-.17,27,27,0,0,1-5.87-1.41,13.68,13.68,0,0,1-2.78-1.27,2.68,2.68,0,0,0,1.33-1.65,16.21,16.21,0,0,0,.62-2.27,42.19,42.19,0,0,0,6.15-.53,55.61,55.61,0,0,0,30.65-15.11c.77-.75,1.51-1.52,2.24-2.31,1.18-1.28,2.3-2.6,3.37-4a64.41,64.41,0,0,0,5.05-7.51,58.85,58.85,0,0,0,3-5.75,53.18,53.18,0,0,0,3-9.35c.42-1.84.79-3.68,1-5.55.17-1.28.36-2.55.45-3.84a8.14,8.14,0,0,0-.08-3,19,19,0,0,1-.46-6.07A6.94,6.94,0,0,0,420.57,33.54Z"/><path class="cls-5" d="M417.83,34.08a19,19,0,0,0,.46,6.07,8.14,8.14,0,0,1,.08,3c-.09,1.29-.28,2.56-.45,3.84-.25,1.87-.62,3.71-1,5.55a53.18,53.18,0,0,1-3,9.35,58.85,58.85,0,0,1-3,5.75,64.41,64.41,0,0,1-5.05,7.51c-1.07,1.38-2.19,2.7-3.37,4-.73.79-1.47,1.56-2.24,2.31a55.54,55.54,0,0,1-30.65,15.11,42.19,42.19,0,0,1-6.15.53c0-.27,0-.53.07-.79.3-2.07-1.34-4.36-3.54-3.5,0-.25.24-.28.39-.38A17.3,17.3,0,0,1,364,90.72c2.45-.8,4.84-1.75,7.22-2.72a103.59,103.59,0,0,0,15.45-7.72,61.29,61.29,0,0,0,8.9-6.64A43.43,43.43,0,0,0,405.77,60a94.16,94.16,0,0,0,3.54-8.87,86.59,86.59,0,0,1,4.34-10.57,12.69,12.69,0,0,0,1-3.77,10.67,10.67,0,0,0,.14-3.33c-.14-.89-.05-1.77-.21-2.65a32.29,32.29,0,0,0,3.16,1.16c.2.05.24.18.22.36C417.94,32.89,417.89,33.49,417.83,34.08Z"/><path class="cls-6" d="M361.47,101a13.68,13.68,0,0,0,2.78,1.27,27,27,0,0,0,5.87,1.41,31.67,31.67,0,0,0,6.23.17A46.81,46.81,0,0,0,389.47,101,70.34,70.34,0,0,0,398.35,97a83.07,83.07,0,0,0,7.93-4.7,59.85,59.85,0,0,0,5.28-4.08c1.39-1.19,2.75-2.41,4-3.71A41.27,41.27,0,0,0,422,76.47c.66-1.14,1.12-2.37,1.72-3.53a3.21,3.21,0,0,1,.91-1.19,26.57,26.57,0,0,1-1.51,3.66,49.91,49.91,0,0,1-20.66,22.08,62.13,62.13,0,0,1-17.95,6.83c-1.66.36-3.31.78-5,1a38.32,38.32,0,0,1-7.34.36,26.32,26.32,0,0,1-6.65-1.19,16.43,16.43,0,0,1-6-3.42c-.11-.1-.21-.22-.31-.32A3.39,3.39,0,0,0,361.47,101Z"/><path class="cls-7" d="M417.83,34.08c.06-.59.11-1.19.16-1.79,0-.18,0-.31-.22-.36a32.29,32.29,0,0,1-3.16-1.16.58.58,0,0,0-.18-.11c-.73-.16-.95-.68-1.06-1.35A6.37,6.37,0,0,1,414.71,24a1.16,1.16,0,0,1,.73-.45c.88-.16,1.75-.35,2.62-.55a.89.89,0,0,1,.56.08l4,1.59a.35.35,0,0,1,.28.34,8.42,8.42,0,0,1-.43,4.13,1.59,1.59,0,0,1-.87,1,.8.8,0,0,0-.46.6,18.36,18.36,0,0,0-.59,2.84A6.94,6.94,0,0,1,417.83,34.08Z"/><path class="cls-8" d="M361.47,101a3.39,3.39,0,0,1-2.26-.24,4.32,4.32,0,0,1-1.45-4.21,5.05,5.05,0,0,1,2-3.69c.09.05.17,0,.21-.08h0c2.2-.86,3.84,1.43,3.54,3.5,0,.26-.05.52-.07.79a16.21,16.21,0,0,1-.62,2.27A2.68,2.68,0,0,1,361.47,101Z"/><path class="cls-5" d="M360,92.77c0,.12-.12.13-.21.08A.16.16,0,0,1,360,92.77Z"/><path class="cls-9" d="M418.13,76.7A8.16,8.16,0,0,1,404,73.53a10.25,10.25,0,0,0,14.18,3.17Z"/><ellipse class="cls-1" cx="411.43" cy="60.89" rx="1.93" ry="2.62"/><ellipse cx="411.43" cy="60.89" rx="1.23" ry="1.66"/><ellipse class="cls-1" cx="420.4" cy="60.89" rx="1.93" ry="2.62"/><ellipse cx="420.4" cy="60.89" rx="1.23" ry="1.66"/><rect x="408.25" y="56.27" width="6.36" height="1.27" transform="translate(61.34 -166.59) rotate(24.68)"/><rect x="416.93" y="56" width="6.36" height="1.27" transform="translate(44.07 252.33) rotate(-35.17)"/><path class="cls-10" d="M433.7,58.06a3.76,3.76,0,0,1-.79,1.42.26.26,0,0,0-.05.12,16.83,16.83,0,0,1-.73,4.28c-.24.86-.53,1.7-.8,2.54a.35.35,0,0,1-.15.19,10.33,10.33,0,0,1-9.87,1,.45.45,0,0,0-.11,0,1.08,1.08,0,0,1-.76-.36,6.28,6.28,0,0,1-1.08-1.37,33.05,33.05,0,0,1-2.31-4.56,1.42,1.42,0,0,0-.12-.25,1,1,0,0,0-1.42-.41,3.79,3.79,0,0,0-.65.42.5.5,0,0,0-.11.17c-.58,1.41-1.16,2.83-1.75,4.24a3.72,3.72,0,0,1-.92,1.23,5.94,5.94,0,0,1-3.2,1.54,11.15,11.15,0,0,1-3.95-.07,16.14,16.14,0,0,1-2.73-.72c-.16-.05-.32-.08-.47-.14a2.27,2.27,0,0,1-1-.81,6.12,6.12,0,0,1-.92-2,16.21,16.21,0,0,1-.59-3.24c0-.48-.06-1-.09-1.44a.33.33,0,0,0-.07-.17c-.29-.35-.58-.69-.86-1a.39.39,0,0,1-.09-.23c0-.39,0-.78,0-1.18l1.08-.21a27.76,27.76,0,0,1,6.63-.3,32.08,32.08,0,0,1,6.45,1.08A4.21,4.21,0,0,1,413,58a8.15,8.15,0,0,0,3.56.79,4.6,4.6,0,0,0,2.09-.53,11.58,11.58,0,0,1,3.23-1.07,28.84,28.84,0,0,1,6.56-.4c1.25.05,2.5.15,3.75.31.26,0,.52,0,.78.09a.84.84,0,0,1,.78.55Z"/><text class="cls-11" transform="translate(357.88 118.91) rotate(-0.17)">BABY BANANA</text><text class="cls-12" transform="translate(491 100.8)"><tspan class="cls-13">B</tspan><tspan x="29.28" y="0">A</tspan><tspan class="cls-14" x="61.29" y="0">B</tspan><tspan x="89.11" y="0">Y </tspan><tspan class="cls-13" x="128.39" y="0">B</tspan><tspan x="157.67" y="0">ANANA</tspan></text><rect class="cls-15" x="39" y="61" width="76" height="7.59" rx="3.8"/><rect class="cls-15" x="39" y="76.7" width="63" height="7.59" rx="3.8"/><rect class="cls-15" x="39" y="92.41" width="76" height="7.59" rx="3.8"/><rect class="cls-15" x="104.65" y="70.65" width="25.35" height="4.89" rx="2.45" transform="translate(-17.32 104.37) rotate(-45)"/><rect class="cls-15" x="114.88" y="75.23" width="4.89" height="25.35" rx="2.45" transform="translate(-27.8 108.71) rotate(-45)"/><text class="cls-16" transform="translate(238 337.94)"><tspan class="cls-17">H</tspan><tspan x="43.9" y="0">ome</tspan></text><path class="cls-15" d="M152.77,365.43H125.52V332.91H103.74V365.4H76.5V321.9H60.15l54.46-49,54.39,49H152.77Z"/><text class="cls-16" transform="translate(238 514.53)"><tspan class="cls-18">T</tspan><tspan class="cls-19" x="31.62" y="0">r</tspan><tspan x="55.23" y="0">ade</tspan></text><rect class="cls-15" x="73" y="477" width="84" height="10.66"/><rect class="cls-15" x="73" y="503.84" width="84" height="10.66"/><rect class="cls-15" x="85" y="499" width="12" height="20.5"/><rect class="cls-15" x="134" y="472" width="12" height="20.5"/><text class="cls-16" transform="translate(238 706.45)"><tspan class="cls-20">B</tspan><tspan x="38.4" y="0">ANA </tspan><tspan class="cls-21" x="179.45" y="0">F</tspan><tspan x="210.69" y="0">arms</tspan></text><rect class="cls-15" x="114.5" y="654.5" width="66" height="66" rx="12"/><circle class="cls-22" cx="74" cy="716" r="29"/><path class="cls-15" d="M74,749.5A33.5,33.5,0,1,1,107.5,716,33.54,33.54,0,0,1,74,749.5Zm0-58A24.5,24.5,0,1,0,98.5,716,24.53,24.53,0,0,0,74,691.5Z"/><circle class="cls-22" cx="177" cy="728" r="18.18"/><path class="cls-15" d="M177,749a21,21,0,1,1,21-21A21,21,0,0,1,177,749Zm0-36.36A15.36,15.36,0,1,0,192.36,728,15.38,15.38,0,0,0,177,712.64Z"/><rect class="cls-15" x="55" y="655" width="48" height="12" rx="6"/><rect class="cls-15" x="95" y="636" width="30" height="3" transform="translate(-418.56 264.5) rotate(-45)"/><rect class="cls-15" x="118.5" y="632.5" width="3" height="30" transform="translate(-422.7 274.5) rotate(-45)"/><text class="cls-16" transform="translate(238 920.03)">Binan<tspan class="cls-19" x="164.99" y="0">c</tspan><tspan x="193.15" y="0">e </tspan><tspan class="cls-23" x="239.87" y="0">P</tspan><tspan class="cls-24" x="275.52" y="0">o</tspan><tspan x="312.64" y="0">ols</tspan></text><rect class="cls-25" x="69" y="891" width="60" height="67" rx="12"/><circle class="cls-25" cx="98.5" cy="867.5" r="23"/><circle class="cls-25" cx="130" cy="880" r="16"/><rect class="cls-15" x="83" y="908" width="32" height="32" rx="11.26"/><text class="cls-16" transform="translate(258 1082.95)"><tspan class="cls-24">M</tspan><tspan x="54.33" y="0">o</tspan><tspan class="cls-26" x="91.26" y="0">r</tspan><tspan x="115.07" y="0">e</tspan></text><circle class="cls-15" cx="74" cy="1068" r="15"/><circle class="cls-15" cx="122" cy="1068" r="15"/><circle class="cls-15" cx="170" cy="1068" r="15"/></svg>