<svg id="Layer_1" data-name="Layer 1" xmlns="http://www.w3.org/2000/svg" viewBox="0 0 1125 1791"><defs><style>.cls-1,.cls-7{fill:#fff;}.cls-10,.cls-12,.cls-14,.cls-2,.cls-21,.cls-45,.cls-58{fill:#ec637d;}.cls-29,.cls-3,.cls-33,.cls-45{font-size:48.8px;}.cls-10,.cls-12,.cls-14,.cls-29,.cls-3,.cls-33,.cls-36,.cls-41,.cls-45,.cls-7{font-family:MyriadPro-Bold, Myriad Pro;font-weight:700;}.cls-4{letter-spacing:0em;}.cls-5{letter-spacing:-0.03em;}.cls-29,.cls-33,.cls-36,.cls-6{fill:#ffcd00;}.cls-10,.cls-7{font-size:72px;}.cls-8{letter-spacing:-0.02em;}.cls-9{letter-spacing:-0.01em;}.cls-11{letter-spacing:0em;}.cls-12{font-size:64px;}.cls-13{letter-spacing:-0.02em;}.cls-14{font-size:36px;}.cls-15{letter-spacing:0em;}.cls-16{letter-spacing:0em;}.cls-17{letter-spacing:-0.04em;}.cls-18{letter-spacing:-0.08em;}.cls-19{letter-spacing:-0.01em;}.cls-20{letter-spacing:0em;}.cls-21{font-size:34.64px;font-family:MyriadPro-Regular, Myriad Pro;}.cls-22{letter-spacing:-0.05em;}.cls-23{letter-spacing:0em;}.cls-24{letter-spacing:0em;}.cls-25{letter-spacing:-0.01em;}.cls-26{letter-spacing:0em;}.cls-27{fill:none;stroke:#000;stroke-miterlimit:10;}.cls-28{fill:#e6e6e6;}.cls-30{letter-spacing:-0.02em;}.cls-31{letter-spacing:-0.01em;}.cls-32{letter-spacing:-0.08em;}.cls-33{letter-spacing:0em;}.cls-34{letter-spacing:0em;}.cls-35{letter-spacing:-0.01em;}.cls-36{font-size:43.24px;}.cls-37{letter-spacing:0.01em;}.cls-38{letter-spacing:0.02em;}.cls-39{letter-spacing:-0.01em;}.cls-40{letter-spacing:0.01em;}.cls-41{font-size:48px;fill:#c4c9cc;}.cls-42{letter-spacing:-0.01em;}.cls-43{letter-spacing:0em;}.cls-44{letter-spacing:0em;}.cls-45{letter-spacing:0em;}.cls-46{letter-spacing:-0.02em;}.cls-47{letter-spacing:0em;}.cls-48{fill:#ea637d;}.cls-49{fill:#fff100;}.cls-50{fill:#ffca2a;}.cls-51{fill:#ffdf81;}.cls-52{fill:#f3a820;}.cls-53{fill:#c0ca33;}.cls-54{fill:#2b2929;}.cls-55{fill:#231f20;}.cls-56{opacity:0.9;}.cls-57{font-size:12.7px;stroke:#fff;stroke-linecap:round;stroke-linejoin:round;stroke-width:0.5px;font-family:Stop;}.cls-58{font-size:49.26px;font-family:MyriadPro-Semibold, Myriad Pro;font-weight:600;}.cls-59{letter-spacing:-0.01em;}</style></defs><rect class="cls-1" width="1125" height="1791"/><rect class="cls-2" y="165" width="1125" height="1626"/><rect class="cls-1" x="71.5" y="494" width="982" height="1237" rx="57.26"/><text class="cls-3" transform="translate(321 100.8)"><tspan class="cls-4">B</tspan><tspan x="29.28" y="0">A</tspan><tspan class="cls-5" x="61.29" y="0">B</tspan><tspan x="89.11" y="0">Y </tspan><tspan class="cls-4" x="128.39" y="0">B</tspan><tspan x="157.67" y="0">ANANA</tspan></text><rect class="cls-1" x="208.82" y="239" width="707.36" height="128" rx="64"/><rect class="cls-6" x="209.02" y="239" width="235.87" height="128" rx="64"/><text class="cls-7" transform="translate(240.3 326.29)"><tspan class="cls-8">S</tspan><tspan class="cls-9" x="37.8" y="0">w</tspan><tspan x="91.94" y="0">ap</tspan></text><text class="cls-10" transform="translate(521.3 326.29)">Liquidi<tspan class="cls-11" x="223.7" y="0">t</tspan><tspan x="250.48" y="0">y</tspan></text><text class="cls-12" transform="translate(137 620.95)">E<tspan class="cls-13" x="34.18" y="0">x</tspan><tspan x="65.98" y="0">change</tspan></text><text class="cls-14" transform="translate(137 1492.95)"> <tspan class="cls-15" x="7.27" y="0">S</tspan><tspan class="cls-16" x="26.57" y="0">lippage</tspan><tspan class="cls-17" x="148.46" y="0"> </tspan><tspan class="cls-18" x="154.33" y="0">T</tspan><tspan x="171.14" y="0">ole</tspan><tspan class="cls-19" x="220.82" y="0">r</tspan><tspan class="cls-20" x="234.11" y="0">an</tspan><tspan class="cls-19" x="274.21" y="0">c</tspan><tspan class="cls-20" x="290.05" y="0">e</tspan></text><text class="cls-14" transform="translate(934 1492.95)">25%</text><text class="cls-21" transform="translate(136.59 670.34)"><tspan class="cls-22">T</tspan><tspan class="cls-23" x="15.66" y="0">r</tspan><tspan class="cls-24" x="26.82" y="0">ade </tspan><tspan class="cls-25" x="87.75" y="0">t</tspan><tspan x="99.01" y="0">okens in an insta</tspan><tspan class="cls-26" x="339.1" y="0">n</tspan><tspan x="358.19" y="0">t</tspan></text><rect class="cls-2" x="777.05" y="577.31" width="50.9" height="7.45"/><rect class="cls-2" x="838.02" y="577.31" width="15.37" height="7.45"/><rect class="cls-2" x="838.02" y="568" width="4.24" height="27"/><rect class="cls-2" x="777.05" y="631.31" width="15.38" height="7.45"/><rect class="cls-2" x="802.49" y="631.31" width="50.9" height="7.45"/><rect class="cls-2" x="802.49" y="622" width="4.24" height="27"/><rect class="cls-2" x="802.49" y="605.24" width="50.9" height="7.45"/><rect class="cls-2" x="777.05" y="605.24" width="15.38" height="7.45"/><rect class="cls-2" x="788.18" y="595" width="4.24" height="27"/><path class="cls-2" d="M934.81,568a34,34,0,0,0-28.07,53.22l2.69-2.69a30.3,30.3,0,1,1,13.51,11.35l-2.83,2.83A34,34,0,1,0,934.81,568Z"/><polygon class="cls-2" points="911.63 624.83 911.63 605.4 894.81 615.11 911.63 624.83"/><rect class="cls-2" x="933.77" y="581.61" width="2.92" height="21.39"/><polygon class="cls-2" points="933.77 603 936.68 602.02 955.42 612.43 953.97 614.95 933.77 603"/><line class="cls-27" x1="71" y1="701" x2="1056" y2="701"/><rect class="cls-28" x="137.5" y="757.5" width="871" height="254" rx="44.44"/><rect class="cls-28" x="138" y="1151" width="871" height="254" rx="44.44"/><rect class="cls-28" x="138" y="1558" width="871" height="122" rx="22.79"/><text class="cls-29" transform="translate(190 831.8)"><tspan class="cls-30">F</tspan><tspan class="cls-31" x="24.74" y="0">r</tspan><tspan x="42.89" y="0">om</tspan></text><text class="cls-29" transform="translate(190 1217.8)"><tspan class="cls-32">T</tspan><tspan x="22.79" y="0">o</tspan></text><text class="cls-33" transform="translate(745 831.8)">B<tspan class="cls-34" x="29.62" y="0">alan</tspan><tspan class="cls-35" x="123.17" y="0">c</tspan><tspan class="cls-34" x="144.64" y="0">e: 0</tspan></text><text class="cls-36" transform="translate(579.89 1347.19)"><tspan class="cls-37">S</tspan><tspan x="23.65" y="0">ele</tspan><tspan class="cls-38" x="81.2" y="0">c</tspan><tspan x="101.39" y="0">t a cur</tspan><tspan class="cls-39" x="218.7" y="0">r</tspan><tspan x="234.78" y="0">en</tspan><tspan class="cls-40" x="282.95" y="0">c</tspan><tspan x="303.1" y="0">y</tspan></text><text class="cls-41" transform="translate(391.13 1633.09)">E<tspan class="cls-42" x="25.63" y="0">n</tspan><tspan class="cls-43" x="53.47" y="0">t</tspan><tspan class="cls-44" x="70.85" y="0" xml:space="preserve">er an  amou</tspan><tspan class="cls-42" x="319.29" y="0">n</tspan><tspan x="347.13" y="0">t</tspan></text><text class="cls-29" transform="translate(807 944.8)">BNB</text><text class="cls-45" transform="translate(562 944.8)">M<tspan class="cls-46" x="41.14" y="0">A</tspan><tspan class="cls-47" x="71.98" y="0">X</tspan></text><text class="cls-29" transform="translate(190 944.8)">0.0</text><text class="cls-29" transform="translate(190 1345.8)">0.0</text><circle class="cls-2" cx="757" cy="926" r="38"/><rect class="cls-1" x="728.16" y="906.19" width="36.02" height="3.76" transform="translate(-423.55 793.59) rotate(-45)"/><rect class="cls-1" x="750.97" y="906.19" width="36.02" height="3.76" transform="translate(670.64 2093.92) rotate(-135)"/><rect class="cls-1" x="728.16" y="941.65" width="36.02" height="3.76" transform="translate(885.73 -251.27) rotate(45)"/><rect class="cls-1" x="750.97" y="941.65" width="36.02" height="3.76" transform="translate(1979.92 1066.96) rotate(135)"/><rect class="cls-1" x="726.5" y="924.03" width="3.74" height="3.74" transform="translate(-441.38 786.23) rotate(-45)"/><rect class="cls-1" x="784.96" y="924.03" width="3.74" height="3.74" transform="translate(-424.26 827.56) rotate(-45)"/><rect class="cls-1" x="748.74" y="917.49" width="16.75" height="16.75" transform="translate(1947.16 1045.2) rotate(135)"/><rect class="cls-6" x="929.29" y="923.68" width="25.28" height="3.96" transform="translate(930.43 -394.93) rotate(45)"/><rect class="cls-6" x="944.36" y="923.67" width="25.32" height="3.96" transform="translate(2288.27 903.46) rotate(135)"/><rect class="cls-6" x="929.29" y="1333.68" width="25.28" height="3.96" transform="translate(1220.34 -274.84) rotate(45)"/><rect class="cls-6" x="944.36" y="1333.67" width="25.32" height="3.96" transform="translate(2578.18 1603.37) rotate(135)"/><rect class="cls-6" x="569.97" y="1063" width="6.05" height="36" rx="3.03"/><rect class="cls-6" x="576.93" y="1076.01" width="6.05" height="25.87" rx="3.03" transform="translate(939.86 -91.15) rotate(45)"/><rect class="cls-6" x="563.02" y="1076.01" width="6.05" height="25.87" rx="3.03" transform="translate(1736.29 1458.69) rotate(135)"/><rect class="cls-6" x="945.44" y="1213" width="30.56" height="5"/><rect class="cls-2" x="39" y="61" width="76" height="7.59" rx="3.8"/><rect class="cls-2" x="39" y="76.7" width="76" height="7.59" rx="3.8"/><rect class="cls-2" x="39" y="92.41" width="76" height="7.59" rx="3.8"/><circle class="cls-48" cx="225.71" cy="76.59" r="63.54"/><path class="cls-49" d="M225.71,141.88A65.29,65.29,0,0,1,179.54,30.42a65.29,65.29,0,0,1,92.34,92.34A64.89,64.89,0,0,1,225.71,141.88Zm0-127.08a61.79,61.79,0,1,0,61.78,61.79A61.86,61.86,0,0,0,225.71,14.8Z"/><path class="cls-50" d="M250.57,33.54a17.53,17.53,0,0,0,.28,4.09,6.77,6.77,0,0,0,1.07,2.43,28.63,28.63,0,0,1,4.57,10.58,35.8,35.8,0,0,1-.83,18,27.87,27.87,0,0,1-1,3.08,3.21,3.21,0,0,0-.91,1.19c-.6,1.16-1.06,2.39-1.72,3.53a41.27,41.27,0,0,1-6.39,8.08c-1.29,1.3-2.65,2.52-4,3.71a59.85,59.85,0,0,1-5.28,4.08,83.07,83.07,0,0,1-7.93,4.7,70.34,70.34,0,0,1-8.88,3.94,46.81,46.81,0,0,1-13.12,2.86,31.67,31.67,0,0,1-6.23-.17,27,27,0,0,1-5.87-1.41,13.68,13.68,0,0,1-2.78-1.27,2.68,2.68,0,0,0,1.33-1.65,16.21,16.21,0,0,0,.62-2.27,42.19,42.19,0,0,0,6.15-.53,55.61,55.61,0,0,0,30.65-15.11c.77-.75,1.51-1.52,2.24-2.31,1.18-1.28,2.3-2.6,3.37-4a64.41,64.41,0,0,0,5-7.51,58.85,58.85,0,0,0,3-5.75,53.18,53.18,0,0,0,3-9.35c.42-1.84.79-3.68,1-5.55.17-1.28.36-2.55.45-3.84a8.14,8.14,0,0,0-.08-3,19,19,0,0,1-.46-6.07A6.94,6.94,0,0,0,250.57,33.54Z"/><path class="cls-51" d="M247.83,34.08a19,19,0,0,0,.46,6.07,8.14,8.14,0,0,1,.08,3c-.09,1.29-.28,2.56-.45,3.84-.25,1.87-.62,3.71-1,5.55a53.18,53.18,0,0,1-3,9.35,58.85,58.85,0,0,1-3,5.75,64.41,64.41,0,0,1-5,7.51c-1.07,1.38-2.19,2.7-3.37,4-.73.79-1.47,1.56-2.24,2.31a55.54,55.54,0,0,1-30.65,15.11,42.19,42.19,0,0,1-6.15.53c0-.27,0-.53.07-.79.3-2.07-1.34-4.36-3.54-3.5,0-.25.24-.28.39-.38A17.3,17.3,0,0,1,194,90.72c2.45-.8,4.84-1.75,7.22-2.72a103.59,103.59,0,0,0,15.45-7.72,61.29,61.29,0,0,0,8.9-6.64A43.43,43.43,0,0,0,235.77,60a94.16,94.16,0,0,0,3.54-8.87,86.59,86.59,0,0,1,4.34-10.57,12.69,12.69,0,0,0,1-3.77,10.67,10.67,0,0,0,.14-3.33c-.14-.89,0-1.77-.21-2.65a32.29,32.29,0,0,0,3.16,1.16c.2.05.24.18.22.36C247.94,32.89,247.89,33.49,247.83,34.08Z"/><path class="cls-52" d="M191.47,101a13.68,13.68,0,0,0,2.78,1.27,27,27,0,0,0,5.87,1.41,31.67,31.67,0,0,0,6.23.17A46.81,46.81,0,0,0,219.47,101,70.34,70.34,0,0,0,228.35,97a83.07,83.07,0,0,0,7.93-4.7,59.85,59.85,0,0,0,5.28-4.08c1.39-1.19,2.75-2.41,4-3.71A41.27,41.27,0,0,0,252,76.47c.66-1.14,1.12-2.37,1.72-3.53a3.21,3.21,0,0,1,.91-1.19,26.57,26.57,0,0,1-1.51,3.66,49.91,49.91,0,0,1-20.66,22.08,62.13,62.13,0,0,1-17.95,6.83c-1.66.36-3.31.78-5,1a38.32,38.32,0,0,1-7.34.36,26.32,26.32,0,0,1-6.65-1.19,16.43,16.43,0,0,1-6-3.42c-.11-.1-.21-.22-.31-.32A3.39,3.39,0,0,0,191.47,101Z"/><path class="cls-53" d="M247.83,34.08c.06-.59.11-1.19.16-1.79,0-.18,0-.31-.22-.36a32.29,32.29,0,0,1-3.16-1.16.58.58,0,0,0-.18-.11c-.73-.16-1-.68-1.06-1.35A6.37,6.37,0,0,1,244.71,24a1.16,1.16,0,0,1,.73-.45c.88-.16,1.75-.35,2.62-.55a.89.89,0,0,1,.56.08l4,1.59a.35.35,0,0,1,.28.34,8.42,8.42,0,0,1-.43,4.13,1.59,1.59,0,0,1-.87,1,.8.8,0,0,0-.46.6,18.36,18.36,0,0,0-.59,2.84A6.94,6.94,0,0,1,247.83,34.08Z"/><path class="cls-54" d="M191.47,101a3.39,3.39,0,0,1-2.26-.24,4.32,4.32,0,0,1-1.45-4.21,5.05,5.05,0,0,1,2-3.69c.09.05.17,0,.21-.08h0c2.2-.86,3.84,1.43,3.54,3.5,0,.26-.05.52-.07.79a16.21,16.21,0,0,1-.62,2.27A2.68,2.68,0,0,1,191.47,101Z"/><path class="cls-51" d="M190,92.77c0,.12-.12.13-.21.08A.16.16,0,0,1,190,92.77Z"/><path class="cls-55" d="M248.13,76.7A8.16,8.16,0,0,1,234,73.53a10.25,10.25,0,0,0,14.18,3.17Z"/><ellipse class="cls-1" cx="241.43" cy="60.89" rx="1.93" ry="2.62"/><ellipse cx="241.43" cy="60.89" rx="1.23" ry="1.66"/><ellipse class="cls-1" cx="250.4" cy="60.89" rx="1.93" ry="2.62"/><ellipse cx="250.4" cy="60.89" rx="1.23" ry="1.66"/><rect x="238.25" y="56.27" width="6.36" height="1.27" transform="translate(45.81 -95.61) rotate(24.68)"/><rect x="246.93" y="56" width="6.36" height="1.27" transform="translate(13.03 154.4) rotate(-35.17)"/><path class="cls-56" d="M263.7,58.06a3.76,3.76,0,0,1-.79,1.42.26.26,0,0,0-.05.12,16.83,16.83,0,0,1-.73,4.28c-.24.86-.53,1.7-.8,2.54a.35.35,0,0,1-.15.19,10.33,10.33,0,0,1-9.87,1,.45.45,0,0,0-.11,0,1.08,1.08,0,0,1-.76-.36,6.28,6.28,0,0,1-1.08-1.37,33.05,33.05,0,0,1-2.31-4.56,1.42,1.42,0,0,0-.12-.25,1,1,0,0,0-1.42-.41,3.79,3.79,0,0,0-.65.42.5.5,0,0,0-.11.17c-.58,1.41-1.16,2.83-1.75,4.24a3.72,3.72,0,0,1-.92,1.23,5.94,5.94,0,0,1-3.2,1.54,11.15,11.15,0,0,1-3.95-.07,16.14,16.14,0,0,1-2.73-.72c-.16-.05-.32-.08-.47-.14a2.27,2.27,0,0,1-1-.81,6.12,6.12,0,0,1-.92-2,16.21,16.21,0,0,1-.59-3.24c0-.48-.06-1-.09-1.44a.33.33,0,0,0-.07-.17c-.29-.35-.58-.69-.86-1a.39.39,0,0,1-.09-.23c0-.39,0-.78,0-1.18.36-.07.72-.15,1.08-.21a27.76,27.76,0,0,1,6.63-.3,32.08,32.08,0,0,1,6.45,1.08A4.21,4.21,0,0,1,243,58a8.15,8.15,0,0,0,3.56.79,4.6,4.6,0,0,0,2.09-.53,11.58,11.58,0,0,1,3.23-1.07,28.84,28.84,0,0,1,6.56-.4c1.25.05,2.5.15,3.75.31.26,0,.52,0,.78.09a.84.84,0,0,1,.78.55Z"/><text class="cls-57" transform="translate(187.88 118.91) rotate(-0.17)">BABY BANANA</text><rect class="cls-28" x="690.43" y="66" width="392.67" height="76" rx="38"/><text class="cls-58" transform="translate(750.57 118.46)">0x3f4d<tspan class="cls-59" x="147.89" y="0">c</tspan><tspan x="169.62" y="0">...5hj</tspan></text></svg>